<svg width="75" height="75" viewBox="0 0 75 75" fill="none" xmlns="http://www.w3.org/2000/svg">
<rect width="75" height="75" rx="10" fill="#F4A52F"/>
<path d="M37 37C40.3152 37 43.4946 35.683 45.8388 33.3388C48.183 30.9946 49.5 27.8152 49.5 24.5C49.5 21.1848 48.183 18.0054 45.8388 15.6612C43.4946 13.317 40.3152 12 37 12C33.6848 12 30.5054 13.317 28.1612 15.6612C25.817 18.0054 24.5 21.1848 24.5 24.5C24.5 27.8152 25.817 30.9946 28.1612 33.3388C30.5054 35.683 33.6848 37 37 37ZM45.3333 24.5C45.3333 26.7101 44.4554 28.8298 42.8926 30.3926C41.3298 31.9554 39.2101 32.8333 37 32.8333C34.7899 32.8333 32.6702 31.9554 31.1074 30.3926C29.5446 28.8298 28.6667 26.7101 28.6667 24.5C28.6667 22.2899 29.5446 20.1702 31.1074 18.6074C32.6702 17.0446 34.7899 16.1667 37 16.1667C39.2101 16.1667 41.3298 17.0446 42.8926 18.6074C44.4554 20.1702 45.3333 22.2899 45.3333 24.5ZM62 57.8333C62 62 57.8333 62 57.8333 62H16.1667C16.1667 62 12 62 12 57.8333C12 53.6667 16.1667 41.1667 37 41.1667C57.8333 41.1667 62 53.6667 62 57.8333ZM57.8333 57.8167C57.8292 56.7917 57.1917 53.7083 54.3667 50.8833C51.65 48.1667 46.5375 45.3333 37 45.3333C27.4583 45.3333 22.35 48.1667 19.6333 50.8833C16.8083 53.7083 16.175 56.7917 16.1667 57.8167H57.8333Z" fill="black"/>
</svg>
