<svg width="77" height="77" viewBox="0 0 77 77" fill="none" xmlns="http://www.w3.org/2000/svg">
<rect width="77" height="77" rx="10" fill="#F4A52F"/>
<path d="M31.6595 40.8451C31.6595 40.5368 31.6795 40.2268 31.7188 39.9237L30.0508 39.7071C30.0021 40.0818 29.9774 40.4647 29.9774 40.8451C29.9774 41.3789 30.0259 41.9134 30.1213 42.4341L31.7758 42.1306C31.6987 41.71 31.6595 41.2773 31.6595 40.8451Z" fill="black"/>
<path d="M32.2731 43.7324L30.7379 44.4197C32.1391 47.5495 35.2519 49.5719 38.6683 49.5719V47.8898C35.914 47.8898 33.4036 46.2579 32.2731 43.7324Z" fill="black"/>
<path d="M50.6081 42.4434C50.6834 41.8972 50.7234 41.3399 50.7234 40.7733C50.7234 39.2634 50.4499 37.7965 49.9225 36.4227L52.6698 38.0088V42.843H54.352V37.0377L49.4903 34.2308L55.7696 30.6055V15.444L48.0725 11H44.4829V12.6821H47.6217L54.0874 16.4151V29.6343L48.0214 33.1365C47.3389 32.296 46.5438 31.5501 45.6669 30.921L45.6599 30.8058C45.4318 27.0229 42.3606 24.0597 38.6682 24.0597C34.9759 24.0597 31.9047 27.0229 31.6764 30.8057L31.6693 30.9224C30.7928 31.5511 29.9973 32.2955 29.3147 33.1364L23.2489 29.6343V16.4151L29.7148 12.6821H32.8535V11H29.2639L21.5669 15.444V30.6055L27.8282 34.2205L22.9486 37.0378V42.731H24.6307V38.009L27.4238 36.3964C26.89 37.7774 26.6133 39.2531 26.6133 40.7734C26.6133 41.2777 26.6446 41.7748 26.7046 42.263L19.5485 46.3945V61.556L27.2456 66H30.8352V64.3179H27.6964L21.2305 60.5849V47.3657L27.0502 44.0057C28.4619 49.1168 33.1353 52.8797 38.6682 52.8797C44.1406 52.8797 48.7723 49.1985 50.2388 44.1726L55.7695 47.3658V60.5849L49.3038 64.3179H46.165V66H49.7546L57.4518 61.556V46.3945L50.6081 42.4434ZM38.6683 51.1976C32.9486 51.1976 28.2953 46.5212 28.2953 40.7734C28.2953 38.4884 29.0171 36.3194 30.3824 34.5009C31.7034 32.7415 33.5807 31.4241 35.6681 30.7914L35.1802 29.1817C34.6137 29.3534 34.0615 29.57 33.5267 29.8247C34.1386 27.4651 36.2243 25.7419 38.6681 25.7419C41.112 25.7419 43.1978 27.4653 43.8095 29.8253C43.3125 29.5885 42.8008 29.384 42.2761 29.219L41.7713 30.8235C43.8335 31.4724 45.6852 32.7935 46.9854 34.5435C48.3301 36.3534 49.0408 38.5077 49.0408 40.7735C49.0411 46.5212 44.3878 51.1976 38.6683 51.1976Z" fill="black"/>
<path d="M31.0708 24.6203V25.6856H32.7529V24.6203C32.7529 22.6416 34.3626 21.0319 36.3414 21.0319V19.3498C33.4352 19.3498 31.0708 21.7141 31.0708 24.6203Z" fill="black"/>
<path d="M40.9951 19.3498H40.8829V21.0319H40.9951C42.9739 21.0319 44.5835 22.6416 44.5835 24.6203V25.6856H46.2656V24.6203C46.2656 21.7141 43.9013 19.3498 40.9951 19.3498Z" fill="black"/>
<path d="M52.6698 47.4408V53.3118L44.5275 58.0126L45.3686 59.4693L54.3519 54.2828V47.4408H52.6698Z" fill="black"/>
<path d="M24.6305 53.3117V47.2165H22.9485V54.2828L31.8557 59.4254L32.6968 57.9686L24.6305 53.3117Z" fill="black"/>
</svg>
