<svg width="50" height="50" viewBox="0 0 50 50" fill="none" xmlns="http://www.w3.org/2000/svg">
<path d="M50 22.0508C50 9.04908 39.8949 0 25.3684 0C10.3163 0 0 10.1578 0 24.9869C0 40.2936 10.0422 50 25.8896 50C29.7628 50 33.4786 49.461 36.2419 48.532V44.7546C34.3098 45.6266 30.1582 46.1919 25.9526 46.1919C12.8055 46.1919 4.32692 37.9536 4.32692 25.1665C4.32692 12.7038 12.9583 3.77739 24.9685 3.77739C37.2574 3.77739 45.6731 11.1744 45.6731 21.9895C45.6731 29.3602 43.1839 34.1236 39.3107 34.1236C37.1001 34.1236 35.842 32.8966 35.842 30.7932V13.2165H31.2051V16.8712H30.7108C29.5156 14.2638 26.7523 12.6468 23.5217 12.6468C17.2313 12.6468 12.837 17.7388 12.837 25.0175C12.837 32.6293 17.137 37.752 23.5262 37.752C27.1208 37.752 29.8841 36.0429 31.2051 32.9886H31.6993C32.0633 35.9246 34.858 38.0193 38.4526 38.0193C45.5158 38.0193 50 31.8186 50 22.0552V22.0508ZM17.7525 25.1358C17.7525 19.8904 20.1788 16.7791 24.2946 16.7791C28.4732 16.7791 31.1422 20.0131 31.1422 25.1358C31.1422 30.2585 28.4418 33.5232 24.2317 33.5232C20.2103 33.5232 17.7525 30.3462 17.7525 25.1358Z" fill="#F4A52F"/>
</svg>
