<svg width="75" height="75" viewBox="0 0 75 75" fill="none" xmlns="http://www.w3.org/2000/svg">
<rect width="75" height="75" rx="10" fill="#F4A52F"/>
<path d="M54.2279 19.2715C55.0919 18.4469 56.2417 17.9911 57.4346 18.0001C58.6276 18.0092 59.7703 18.4824 60.6218 19.32C61.4733 20.1575 61.9669 21.2939 61.9984 22.4893C62.0299 23.6848 61.5969 24.8457 60.7908 25.7272L36.3178 56.4072C35.897 56.8615 35.3891 57.2261 34.8245 57.4792C34.2599 57.7323 33.6502 57.8687 33.0318 57.8802C32.4134 57.8916 31.7991 57.778 31.2255 57.546C30.6519 57.3141 30.1309 56.9686 29.6936 56.5301L13.4641 40.2618C13.0122 39.8396 12.6497 39.3305 12.3982 38.7649C12.1468 38.1992 12.0116 37.5886 12.0007 36.9695C11.9898 36.3503 12.1034 35.7353 12.3348 35.1611C12.5662 34.587 12.9105 34.0654 13.3474 33.6275C13.7842 33.1896 14.3045 32.8444 14.8773 32.6125C15.4501 32.3806 16.0637 32.2667 16.6813 32.2776C17.299 32.2886 17.9082 32.4241 18.4724 32.6761C19.0367 32.9281 19.5446 33.2915 19.9657 33.7446L32.8094 46.6129L54.1113 19.4067C54.1497 19.3594 54.1907 19.3143 54.234 19.2715H54.2279Z" fill="black"/>
</svg>
