<svg width="55" height="55" viewBox="0 0 55 55" fill="none" xmlns="http://www.w3.org/2000/svg">
<path d="M20.6595 29.8451C20.6595 29.5368 20.6795 29.2268 20.7188 28.9237L19.0508 28.7071C19.0021 29.0818 18.9774 29.4647 18.9774 29.8451C18.9774 30.3789 19.0259 30.9134 19.1213 31.4341L20.7758 31.1306C20.6987 30.71 20.6595 30.2773 20.6595 29.8451Z" fill="black"/>
<path d="M21.2731 32.7324L19.7379 33.4197C21.1391 36.5495 24.2519 38.5719 27.6683 38.5719V36.8898C24.914 36.8898 22.4036 35.2579 21.2731 32.7324Z" fill="black"/>
<path d="M39.6081 31.4434C39.6834 30.8972 39.7234 30.3399 39.7234 29.7733C39.7234 28.2634 39.4499 26.7965 38.9225 25.4227L41.6698 27.0088V31.843H43.352V26.0377L38.4903 23.2308L44.7696 19.6055V4.44404L37.0725 0H33.4829V1.68212H36.6217L43.0874 5.41514V18.6343L37.0214 22.1365C36.3389 21.296 35.5438 20.5501 34.6669 19.921L34.6599 19.8058C34.4318 16.0229 31.3606 13.0597 27.6682 13.0597C23.9759 13.0597 20.9047 16.0229 20.6764 19.8057L20.6693 19.9224C19.7928 20.5511 18.9973 21.2955 18.3147 22.1364L12.2489 18.6343V5.41514L18.7148 1.68212H21.8535V0H18.2639L10.5669 4.44404V19.6055L16.8282 23.2205L11.9486 26.0378V31.731H13.6307V27.009L16.4238 25.3964C15.89 26.7774 15.6133 28.2531 15.6133 29.7734C15.6133 30.2777 15.6446 30.7748 15.7046 31.263L8.54846 35.3945V50.556L16.2456 55H19.8352V53.3179H16.6964L10.2305 49.5849V36.3657L16.0502 33.0057C17.4619 38.1168 22.1353 41.8797 27.6682 41.8797C33.1406 41.8797 37.7723 38.1985 39.2388 33.1726L44.7695 36.3658V49.5849L38.3038 53.3179H35.165V55H38.7546L46.4518 50.556V35.3945L39.6081 31.4434ZM27.6683 40.1976C21.9486 40.1976 17.2953 35.5212 17.2953 29.7734C17.2953 27.4884 18.0171 25.3194 19.3824 23.5009C20.7034 21.7415 22.5807 20.4241 24.6681 19.7914L24.1802 18.1817C23.6137 18.3534 23.0615 18.57 22.5267 18.8247C23.1386 16.4651 25.2243 14.7419 27.6681 14.7419C30.112 14.7419 32.1978 16.4653 32.8095 18.8253C32.3125 18.5885 31.8008 18.384 31.2761 18.219L30.7713 19.8235C32.8335 20.4724 34.6852 21.7935 35.9854 23.5435C37.3301 25.3534 38.0408 27.5077 38.0408 29.7735C38.0411 35.5212 33.3878 40.1976 27.6683 40.1976Z" fill="black"/>
<path d="M20.0708 13.6203V14.6856H21.7529V13.6203C21.7529 11.6416 23.3626 10.0319 25.3414 10.0319V8.34979C22.4352 8.34979 20.0708 10.7141 20.0708 13.6203Z" fill="black"/>
<path d="M29.9951 8.34979H29.8829V10.0319H29.9951C31.9739 10.0319 33.5835 11.6416 33.5835 13.6203V14.6856H35.2656V13.6203C35.2656 10.7141 32.9013 8.34979 29.9951 8.34979Z" fill="black"/>
<path d="M41.6698 36.4408V42.3118L33.5275 47.0126L34.3686 48.4693L43.3519 43.2828V36.4408H41.6698Z" fill="black"/>
<path d="M13.6305 42.3117V36.2165H11.9485V43.2828L20.8557 48.4254L21.6968 46.9686L13.6305 42.3117Z" fill="black"/>
</svg>
